# xmcd
#
# Track frame offsets: 
#        150
#        18057
#        26090
#        50010
#        63550
#        98522
#        125030
#        155502
#        203572
#
# Disc length: 2875 seconds
#
# Revision: 8
# Processed by: cddbd v1.5.2PL0 Copyright (c) Steve Scherf et al.
# Submitted via: ExactAudioCopy v0.99pb5
#
DISCID=710b3909
DTITLE=Faithless - Irreverence
DYEAR=1996
DGENRE=Pop
TTITLE0=Flowerstand Man (Matty's Remix)
TTITLE1=Angeline (The Innocents Mix)
TTITLE2=Reverence (Tamsin's Re-fix)
TTITLE3=Soundcheck Jam
TTITLE4=Salva Mea (Way Out West Remix)
TTITLE5=Don't Leave (Floating Remix)
TTITLE6=Drifting Away (Paradiso Mix)
TTITLE7=Insomnia (Moody Mix)
TTITLE8=Baseball Dub (Cheeky All Stars Remix)
EXTD=YEAR: 1996
EXTT0=
EXTT1=
EXTT2=
EXTT3=
EXTT4=
EXTT5=
EXTT6=
EXTT7=
EXTT8=
PLAYORDER=
